<?xml version="1.0" standalone="no"?>
<!DOCTYPE svg PUBLIC "-//W3C//DTD SVG 20010904//EN"
 "http://www.w3.org/TR/2001/REC-SVG-20010904/DTD/svg10.dtd">
<svg version="1.0" xmlns="http://www.w3.org/2000/svg"
 width="300.000000pt" height="212.000000pt" viewBox="0 0 300.000000 212.000000"
 preserveAspectRatio="xMidYMid meet">
<metadata>
Created by potrace 1.15, written by Peter Selinger 2001-2017
</metadata>
<g transform="translate(0.000000,212.000000) scale(0.100000,-0.100000)"
fill="#000000" stroke="none">
<path d="M1279 1903 c-1 -5 -2 -12 -3 -18 -1 -5 -46 -56 -101 -111 -86 -87
-103 -100 -122 -93 -12 4 -27 17 -33 28 -6 12 -17 21 -25 21 -8 0 -20 9 -27
20 -7 11 -18 20 -25 20 -26 0 -11 -38 37 -95 28 -33 50 -64 50 -70 1 -5 15
-19 32 -30 17 -11 40 -37 51 -57 10 -21 26 -38 35 -38 19 0 112 -81 112 -97 0
-6 -7 -16 -16 -24 -8 -7 -26 -33 -39 -58 -13 -25 -50 -81 -83 -124 -33 -43
-63 -83 -66 -90 -8 -18 -54 40 -97 120 -20 37 -42 70 -50 73 -8 4 -24 12 -36
18 -63 33 -73 -1 -28 -83 20 -35 58 -92 85 -126 28 -34 50 -66 50 -72 0 -5 11
-20 24 -32 13 -12 25 -26 27 -32 5 -14 81 -25 98 -14 19 12 5 31 -25 31 -19 0
-22 3 -14 13 6 6 35 50 64 97 30 47 60 92 67 100 8 8 23 34 33 58 10 23 23 42
27 42 5 0 15 13 23 29 9 16 24 31 34 33 11 3 22 17 26 32 4 15 37 58 73 96 37
39 79 88 94 109 19 28 29 37 37 29 15 -15 42 -2 42 20 0 32 -30 93 -43 90 -16
-4 -149 93 -196 142 -33 35 -89 61 -92 43z m89 -60 c57 -58 185 -154 198 -149
6 2 11 -1 12 -7 1 -7 3 -24 6 -39 4 -25 2 -27 -14 -18 -15 8 -22 6 -31 -12
-15 -30 -46 -67 -122 -149 -82 -88 -89 -98 -83 -108 3 -5 -3 -11 -14 -14 -11
-3 -24 -17 -30 -31 -5 -14 -14 -26 -19 -26 -5 0 -15 -14 -22 -32 -7 -18 -25
-46 -39 -62 -15 -17 -35 -47 -46 -66 -10 -19 -22 -39 -26 -45 -5 -5 -23 -34
-42 -62 -31 -47 -33 -54 -18 -63 16 -9 16 -9 -1 -10 -17 0 -87 64 -87 80 0 4
-23 36 -51 71 -57 72 -99 148 -99 180 0 21 1 21 19 5 10 -9 25 -16 32 -14 9 2
13 -4 11 -14 -2 -11 3 -18 13 -18 8 0 15 -5 15 -11 0 -16 83 -140 108 -163 21
-18 22 -18 31 7 6 14 40 65 75 112 36 47 74 102 85 123 11 21 27 44 35 51 9 8
16 18 16 25 0 14 -111 116 -127 116 -7 0 -13 4 -13 10 0 5 -24 35 -54 67 -72
78 -136 153 -136 160 0 8 61 -47 73 -65 5 -7 13 -10 18 -6 5 3 16 1 24 -6 10
-9 23 0 62 41 84 91 178 179 191 179 6 0 29 -17 50 -37z"/>
<path d="M1212 1719 c-51 -50 -92 -95 -92 -99 0 -4 34 -35 75 -70 41 -35 75
-70 75 -79 0 -9 7 -27 16 -39 l15 -22 30 32 c37 41 159 208 159 218 0 4 -10
11 -22 17 -33 15 -130 94 -124 101 8 7 -14 32 -29 32 -6 0 -53 -41 -103 -91z
m123 42 c14 -15 49 -45 80 -66 l55 -38 -17 -26 c-9 -14 -35 -51 -58 -81 -23
-30 -47 -65 -54 -78 -13 -24 -13 -24 -69 30 -31 29 -74 68 -96 85 l-39 32 24
30 c13 16 29 30 34 31 6 0 32 25 59 55 27 30 51 55 53 55 3 0 15 -13 28 -29z"/>
<path d="M560 1836 c-27 -10 -34 -18 -32 -34 3 -23 -51 -161 -98 -249 -17 -31
-30 -59 -30 -64 0 -4 37 -33 83 -65 45 -32 107 -78 138 -102 l56 -45 -18 -36
c-10 -20 -51 -98 -90 -175 l-71 -138 -82 79 c-101 98 -136 123 -172 120 -22
-2 -30 -8 -32 -25 -2 -13 3 -25 12 -28 9 -3 16 -12 16 -20 0 -7 14 -21 31 -29
17 -9 66 -50 110 -92 66 -63 77 -78 69 -93 -6 -11 -6 -21 -1 -24 11 -7 41 3
41 13 0 3 14 6 32 6 32 0 34 4 103 141 39 77 76 139 82 137 9 -3 96 177 127
264 20 56 55 123 65 123 4 0 8 14 9 30 0 18 -4 30 -12 30 -15 0 -66 52 -66 67
0 7 -8 14 -19 18 -10 3 -30 16 -44 28 -130 114 -138 122 -135 147 4 30 -19 35
-72 16z m53 -24 c-5 -20 99 -123 170 -168 20 -14 37 -28 37 -33 0 -4 16 -25
36 -45 l36 -37 -25 -47 c-14 -26 -41 -85 -60 -132 -62 -149 -100 -225 -105
-211 -2 8 -19 -14 -37 -50 -40 -80 -92 -179 -104 -199 -5 -8 -12 -23 -15 -33
-10 -32 -57 -8 -136 68 -41 40 -93 85 -114 99 -21 14 -35 26 -31 26 5 0 1 8
-7 18 -27 31 -32 48 -8 27 l23 -20 -8 24 -7 23 33 -23 c19 -13 73 -62 121
-108 48 -47 89 -83 92 -80 13 13 187 362 184 369 -4 12 -115 99 -198 156 -80
54 -79 47 -24 156 49 98 84 196 77 216 -3 9 -3 14 1 11 4 -4 19 -3 34 1 39 12
41 12 35 -8z"/>
<path d="M566 1688 c-13 -29 -29 -71 -37 -93 -7 -22 -19 -48 -27 -57 -8 -9
-12 -21 -11 -27 5 -11 226 -171 238 -171 4 0 26 41 49 91 l42 92 -109 108
c-60 60 -112 109 -116 109 -3 0 -16 -24 -29 -52z m217 -211 c-11 -23 -28 -60
-39 -83 l-19 -40 -96 70 c-53 39 -105 76 -115 83 -18 11 -18 12 4 19 15 4 22
13 20 28 -1 11 9 46 24 76 14 30 28 63 31 72 5 13 29 -7 108 -83 l103 -100
-21 -42z"/>
<path d="M2116 1540 c-71 -44 -142 -93 -158 -110 -32 -35 -38 -86 -12 -92 14
-2 13 -8 -10 -34 -14 -18 -26 -37 -26 -43 0 -5 -8 -15 -18 -20 -10 -5 -26 -25
-37 -44 l-18 -35 -34 41 c-57 67 -57 68 -7 128 25 30 61 77 79 106 19 29 44
62 55 73 16 16 20 28 15 51 -7 31 -32 39 -42 13 -3 -8 -11 -13 -17 -11 -17 7
-71 -43 -91 -83 -10 -19 -36 -61 -59 -93 -34 -48 -44 -57 -63 -52 -39 9 -27
-37 25 -94 12 -14 22 -30 22 -34 0 -5 20 -33 45 -64 25 -30 45 -61 45 -69 0
-8 4 -14 9 -14 6 0 44 -44 85 -98 78 -101 111 -124 160 -115 17 4 26 12 26 24
0 11 -4 19 -10 19 -12 0 -64 56 -124 134 -47 60 -54 76 -36 76 6 0 25 30 44
68 19 37 44 87 57 112 12 25 29 52 36 62 8 9 13 25 12 35 -4 21 8 43 22 43 11
0 98 -180 119 -245 7 -22 20 -49 29 -60 10 -11 22 -32 28 -46 14 -31 66 -62
81 -47 11 11 3 48 -21 95 -9 16 -34 77 -57 134 -22 57 -53 130 -68 163 l-27
58 35 29 c20 17 46 29 62 29 21 0 28 5 28 19 0 10 9 21 21 24 18 5 19 8 7 26
-25 41 -71 28 -212 -59z m192 53 c8 -8 4 -13 -14 -17 -17 -5 -24 -12 -20 -21
4 -11 -2 -15 -19 -15 -13 0 -38 -12 -57 -27 -18 -15 -35 -28 -37 -30 -4 -3 41
-116 99 -253 71 -165 80 -188 80 -193 0 -16 -51 22 -64 48 -9 16 -20 37 -25
45 -19 29 -121 262 -121 275 0 7 -7 18 -15 25 -12 10 -22 8 -55 -14 -77 -51
-113 -68 -107 -52 3 8 1 16 -4 18 -21 7 72 84 183 152 114 69 154 83 176 59z
m-382 -32 c-4 -5 -1 -11 6 -13 8 -3 4 -12 -10 -26 -13 -13 -38 -46 -57 -75
-18 -29 -54 -77 -79 -107 -25 -30 -46 -62 -46 -70 1 -18 80 -122 97 -127 6 -2
14 6 18 18 4 12 25 41 47 65 22 23 40 46 40 51 1 15 34 48 65 64 l30 17 -16
-42 c-9 -22 -31 -66 -49 -96 -18 -30 -35 -65 -38 -77 -4 -13 -13 -23 -20 -23
-46 0 0 -82 109 -197 38 -40 42 -63 11 -63 -30 0 -175 170 -298 349 -21 31
-41 58 -45 61 -14 10 -20 39 -8 34 12 -4 93 104 134 180 12 23 22 37 23 31 0
-5 10 1 21 15 11 14 18 19 14 13 -10 -21 14 -15 27 7 7 11 16 20 21 20 4 0 6
-4 3 -9z"/>
<path d="M2475 1463 c-22 -21 -46 -48 -52 -60 -7 -13 -20 -35 -28 -50 -18 -34
-19 -80 -2 -97 7 -7 36 -16 64 -20 29 -3 68 -13 89 -22 l36 -15 -73 -46 c-41
-25 -84 -49 -96 -54 -28 -10 -30 -39 -4 -39 11 0 33 -8 50 -17 22 -13 34 -15
39 -7 4 6 41 28 82 48 88 44 96 50 113 85 9 18 20 25 35 24 13 -2 22 3 22 11
0 15 -24 38 -36 35 -12 -3 -74 34 -74 44 0 4 -9 7 -20 7 -12 0 -35 7 -53 17
-17 9 -42 19 -54 22 -22 6 -22 7 14 59 32 45 35 56 27 80 -13 38 -33 37 -79
-5z m65 -5 c0 -13 -16 -48 -35 -78 l-35 -55 22 -6 c13 -4 64 -26 113 -50 50
-24 99 -46 110 -50 19 -7 19 -7 -2 -8 -16 -1 -25 -9 -29 -27 -4 -17 -26 -38
-60 -60 -29 -19 -56 -34 -59 -34 -3 0 -25 -10 -50 -21 -32 -15 -49 -18 -58
-11 -6 5 -23 12 -37 14 -25 4 -25 5 -3 14 51 22 172 100 173 112 0 19 -143 67
-164 55 -5 -4 -6 -1 -2 5 5 8 0 12 -14 12 -17 0 -19 5 -15 31 8 44 23 69 74
128 48 55 71 64 71 29z"/>
<path d="M1597 1047 c-21 -33 -44 -161 -58 -322 -6 -77 -13 -142 -15 -144 -4
-4 -113 30 -144 46 -14 7 -31 13 -37 13 -7 0 -13 4 -13 10 0 20 24 60 37 61 7
1 18 3 23 4 6 1 17 3 25 4 8 0 15 8 15 16 0 19 -31 55 -47 55 -7 0 -13 4 -13
10 0 5 -17 9 -37 8 -21 -1 -81 1 -133 5 -84 5 -98 4 -117 -13 -26 -21 -30 -40
-8 -40 8 0 26 -22 39 -49 14 -26 41 -74 60 -106 19 -32 32 -64 29 -72 -3 -8 2
-16 13 -19 11 -3 41 -35 67 -70 41 -55 52 -65 75 -62 18 2 26 8 23 18 -2 8 -6
26 -9 40 -3 14 -15 35 -28 48 -25 26 -48 82 -34 82 5 0 31 -8 57 -19 26 -10
79 -26 116 -36 67 -18 68 -18 87 3 22 23 26 42 10 42 -5 0 -10 5 -10 11 0 6 9
8 20 4 25 -8 29 2 32 84 3 60 5 65 27 66 14 1 35 14 47 28 13 15 32 27 43 27
11 0 35 13 54 30 l34 29 59 -44 c32 -25 66 -45 74 -45 8 0 25 -3 38 -6 17 -5
22 -2 22 12 -1 17 -129 124 -192 160 -11 6 -36 26 -55 43 -20 18 -53 41 -73
51 -21 11 -40 28 -43 40 -7 27 -41 26 -60 -3z m46 -6 c2 -11 24 -29 48 -42 24
-12 48 -28 54 -35 5 -7 29 -25 51 -41 73 -50 212 -158 209 -161 -9 -10 -84 24
-120 53 -75 60 -79 60 -126 15 -23 -22 -45 -40 -49 -40 -4 0 -17 -11 -30 -25
-13 -14 -30 -24 -38 -23 -20 4 -30 -18 -37 -84 -6 -54 -8 -58 -32 -56 l-25 3
6 110 c14 217 66 411 89 326z m-300 -245 c9 3 17 1 17 -5 0 -6 6 -11 13 -11
15 0 48 -36 40 -44 -4 -3 -20 -6 -38 -6 -27 0 -34 -6 -53 -45 -21 -42 -21 -46
-5 -51 10 -3 34 -12 53 -20 19 -7 67 -23 105 -34 91 -28 123 -42 75 -35 -33 6
-34 5 -16 -10 20 -15 19 -15 -1 -15 -11 0 -69 16 -129 35 -59 19 -113 35 -120
35 -16 0 15 -74 45 -108 12 -13 19 -28 16 -33 -3 -4 2 -20 11 -34 27 -41 0
-29 -42 19 -78 89 -94 109 -94 117 0 5 -12 28 -27 52 -54 85 -100 175 -94 185
10 16 40 18 136 10 49 -4 98 -5 108 -2z"/>
<path d="M1636 973 c-3 -10 -8 -55 -12 -101 l-7 -83 76 48 c42 26 77 53 77 60
0 6 -24 26 -52 45 -29 18 -58 36 -65 41 -7 4 -14 0 -17 -10z"/>
<path d="M881 821 c-22 -31 -91 -308 -98 -397 -6 -70 3 -82 43 -61 32 17 52
10 205 -65 90 -43 139 -53 139 -27 0 5 17 7 38 6 29 -2 37 2 37 15 0 9 4 20 8
24 27 27 -20 54 -95 54 -30 0 -94 13 -152 31 -56 18 -107 33 -114 35 -9 3 -10
9 -4 21 19 36 59 230 57 278 -3 96 -4 102 -25 108 -14 4 -26 -3 -39 -22z m45
-64 c-3 -23 -8 -53 -12 -67 -4 -20 -3 -22 5 -10 9 12 11 10 10 -10 0 -14 -4
-34 -9 -45 -8 -18 -9 -18 -9 -2 -1 29 -21 9 -21 -21 0 -21 2 -24 10 -12 16 25
12 -5 -11 -71 -11 -34 -19 -68 -17 -76 5 -23 236 -93 285 -86 24 3 49 -1 68
-11 21 -11 25 -16 13 -17 -10 -1 -22 -3 -28 -4 -5 -1 -13 -3 -17 -4 -5 -1 3
-9 17 -17 24 -15 24 -15 -18 -9 -29 3 -41 2 -37 -5 18 -28 -35 -18 -118 23
-164 81 -176 84 -231 61 -18 -7 -19 -4 -12 44 11 81 76 353 92 384 14 26 16
27 31 13 11 -12 14 -27 9 -58z"/>
</g>
</svg>
